<svg width="168" height="89" viewBox="0 0 168 89" fill="none" xmlns="http://www.w3.org/2000/svg">
<path d="M166.5 26C166.5 12.469 155.531 1.5 142 1.5H26C12.469 1.5 1.5 12.469 1.5 26V319C1.5 332.531 12.469 343.5 26 343.5H142C155.531 343.5 166.5 332.531 166.5 319V26Z" fill="white" stroke="#607D8B"/>
<path d="M1 48.5C0.723858 48.5 0.5 48.7239 0.5 49V60C0.5 60.2761 0.723858 60.5 1 60.5H2.5V48.5H1Z" fill="white" stroke="#607D8B"/>
<path d="M1 73.5C0.723858 73.5 0.5 73.7239 0.5 74V96C0.5 96.2761 0.723858 96.5 1 96.5H2.5V73.5H1Z" fill="white" stroke="#607D8B"/>
<path d="M167 80.5H165.5V120.5H167C167.276 120.5 167.5 120.276 167.5 120V81C167.5 80.7239 167.276 80.5 167 80.5Z" fill="white" stroke="#607D8B"/>
<rect x="73.5" y="10.5" width="21" height="3" rx="1.5" stroke="#607D8B"/>
<circle cx="102" cy="12" r="1.5" stroke="#607D8B"/>
<path d="M9.5 28V318C9.5 327.665 17.335 335.5 27 335.5H141C150.665 335.5 158.5 327.665 158.5 318V28C158.5 18.335 150.665 10.5 141 10.5H128C126.067 10.5 124.5 12.067 124.5 14V15C124.5 19.1421 121.142 22.5 117 22.5H51C46.8579 22.5 43.5 19.1421 43.5 15V14C43.5 12.067 41.933 10.5 40 10.5H27C17.335 10.5 9.5 18.335 9.5 28Z" stroke="#607D8B"/>
</svg>
