<svg width="168" height="89" viewBox="0 0 168 89" fill="none" xmlns="http://www.w3.org/2000/svg">
<path d="M166.5 25C166.5 11.469 155.531 0.5 142 0.5H26C12.469 0.5 1.5 11.469 1.5 25V318C1.5 331.531 12.469 342.5 26 342.5H142C155.531 342.5 166.5 331.531 166.5 318V25Z" fill="white" stroke="#607D8B"/>
<path d="M1 47.5C0.723858 47.5 0.5 47.7239 0.5 48V59C0.5 59.2761 0.723858 59.5 1 59.5H2.5V47.5H1Z" fill="white" stroke="#607D8B"/>
<path d="M1 72.5C0.723858 72.5 0.5 72.7239 0.5 73V95C0.5 95.2761 0.723858 95.5 1 95.5H2.5V72.5H1Z" fill="white" stroke="#607D8B"/>
<path d="M167 79.5H165.5V119.5H167C167.276 119.5 167.5 119.276 167.5 119V80C167.5 79.7239 167.276 79.5 167 79.5Z" fill="white" stroke="#607D8B"/>
<rect x="73.5" y="9.5" width="21" height="3" rx="1.5" stroke="#607D8B"/>
<circle cx="102" cy="11" r="1.5" stroke="#607D8B"/>
<line x1="9" y1="49.5" x2="159" y2="49.5" stroke="#DAE2E7"/>
<rect x="17" y="29" width="72" height="13" rx="6.5" fill="#E7E7E7"/>
<circle cx="113" cy="35" r="6" fill="#DB4C3F"/>
<circle cx="113" cy="35" r="8.5" stroke="#DB4C3F" stroke-opacity="0.34"/>
<circle cx="141" cy="35" r="6" fill="#DB4C3F"/>
<circle cx="141" cy="35" r="8.5" stroke="#DB4C3F" stroke-opacity="0.34"/>
<path d="M9.5 27V317C9.5 326.665 17.335 334.5 27 334.5H141C150.665 334.5 158.5 326.665 158.5 317V27C158.5 17.335 150.665 9.5 141 9.5H128C126.067 9.5 124.5 11.067 124.5 13V14C124.5 18.1421 121.142 21.5 117 21.5H51C46.8579 21.5 43.5 18.1421 43.5 14V13C43.5 11.067 41.933 9.5 40 9.5H27C17.335 9.5 9.5 17.335 9.5 27Z" stroke="#607D8B"/>
</svg>
