<svg width="224" height="423" viewBox="0 0 224 423" fill="none" xmlns="http://www.w3.org/2000/svg">
<rect width="224" height="423" fill="#F5F5F5"/>
<rect x="18" y="16" width="190" height="100.754" rx="10" fill="#E7E7E7"/>
<rect x="18" y="134.317" width="190" height="16.6383" rx="7" fill="#E7E7E7"/>
<rect x="18" y="162.047" width="58" height="16.6383" rx="7" fill="#E7E7E7"/>
<rect x="150" y="189.778" width="58" height="16.6383" rx="7" fill="#E7E7E7"/>
<rect x="90" y="162.047" width="118" height="16.6383" rx="7" fill="#E7E7E7"/>
<rect x="17" y="189.778" width="118" height="16.6383" rx="7" fill="#E7E7E7"/>
<rect x="69" y="219.357" width="139" height="12.0165" rx="5" fill="#E7E7E7"/>
<rect x="69" y="242.466" width="139" height="12.0165" rx="5" fill="#E7E7E7"/>
<rect x="18" y="217.508" width="42" height="38.8227" rx="7" fill="#E7E7E7"/>
<rect x="69" y="269.272" width="139" height="12.0165" rx="5" fill="#E7E7E7"/>
<rect x="69" y="292.381" width="139" height="12.0165" rx="5" fill="#E7E7E7"/>
<rect x="18" y="267.423" width="42" height="38.8227" rx="7" fill="#E7E7E7"/>
<rect x="17" y="315.489" width="73" height="61.0071" rx="7" fill="#E7E7E7"/>
<rect x="100" y="315.489" width="108" height="36.974" rx="7" fill="#E7E7E7"/>
<rect x="18" y="383.891" width="72" height="23.1087" rx="7" fill="#E7E7E7"/>
<rect x="100" y="361.707" width="108" height="43.4444" rx="7" fill="#E7E7E7"/>
</svg>
