<svg width="224" height="423" viewBox="0 0 224 423" fill="none" xmlns="http://www.w3.org/2000/svg">
<rect width="224" height="423" fill="#F5F5F5"/>
<rect x="18" y="66" width="190" height="100.754" rx="10" fill="#E7E7E7"/>
<rect x="18" y="184.317" width="190" height="16.6383" rx="7" fill="#E7E7E7"/>
<rect x="18" y="212.047" width="58" height="16.6383" rx="7" fill="#E7E7E7"/>
<rect x="150" y="239.778" width="58" height="16.6383" rx="7" fill="#E7E7E7"/>
<rect x="90" y="212.047" width="118" height="16.6383" rx="7" fill="#E7E7E7"/>
<rect x="17" y="239.778" width="118" height="16.6383" rx="7" fill="#E7E7E7"/>
<rect x="69" y="269.357" width="139" height="12.0165" rx="5" fill="#E7E7E7"/>
<rect x="69" y="292.466" width="139" height="12.0165" rx="5" fill="#E7E7E7"/>
<rect x="18" y="267.508" width="42" height="38.8227" rx="7" fill="#E7E7E7"/>
<rect x="69" y="319.272" width="139" height="12.0165" rx="5" fill="#E7E7E7"/>
<rect x="69" y="342.381" width="139" height="12.0165" rx="5" fill="#E7E7E7"/>
<rect x="18" y="317.423" width="42" height="38.8227" rx="7" fill="#E7E7E7"/>
<rect x="17" y="365" width="73" height="37" rx="7" fill="#E7E7E7"/>
<rect x="100" y="365.489" width="108" height="36.974" rx="7" fill="#E7E7E7"/>
<rect width="224" height="49" fill="#DB4C3F"/>
</svg>
