<svg width="224" height="424" viewBox="0 0 224 424" fill="none" xmlns="http://www.w3.org/2000/svg">
<rect y="1" width="224" height="423" fill="#F5F5F5"/>
<rect x="18" y="67" width="190" height="100.754" rx="10" fill="#E7E7E7"/>
<rect x="18" y="185.317" width="190" height="16.6383" rx="7" fill="#E7E7E7"/>
<rect x="18" y="213.047" width="58" height="16.6383" rx="7" fill="#E7E7E7"/>
<rect x="150" y="240.778" width="58" height="16.6383" rx="7" fill="#E7E7E7"/>
<rect x="90" y="213.047" width="118" height="16.6383" rx="7" fill="#E7E7E7"/>
<rect x="17" y="240.778" width="118" height="16.6383" rx="7" fill="#E7E7E7"/>
<rect x="69" y="270.357" width="139" height="12.0165" rx="5" fill="#E7E7E7"/>
<rect x="69" y="293.466" width="139" height="12.0165" rx="5" fill="#E7E7E7"/>
<rect x="18" y="268.508" width="42" height="38.8227" rx="7" fill="#E7E7E7"/>
<rect x="69" y="320.272" width="139" height="12.0165" rx="5" fill="#E7E7E7"/>
<rect x="69" y="343.381" width="139" height="12.0165" rx="5" fill="#E7E7E7"/>
<rect x="18" y="318.423" width="42" height="38.8227" rx="7" fill="#E7E7E7"/>
<rect x="17" y="366" width="73" height="37" rx="7" fill="#E7E7E7"/>
<rect x="100" y="366.489" width="108" height="36.974" rx="7" fill="#E7E7E7"/>
<rect y="1" width="224" height="49" fill="#DB4C3F"/>
<rect width="224" height="424" fill="black" fill-opacity="0.43"/>
<rect width="140" height="424" fill="#F5F5F5"/>
<rect y="1" width="140" height="49" fill="#DB4C3F"/>
<rect x="8" y="67" width="116" height="18" rx="7" fill="#E6E6E6"/>
<rect x="8" y="98" width="116" height="18" rx="7" fill="#E6E6E6"/>
<rect x="8" y="129" width="116" height="18" rx="7" fill="#E6E6E6"/>
<rect x="8" y="161" width="116" height="18" rx="7" fill="#E6E6E6"/>
</svg>
