<svg width="378" height="48" viewBox="0 0 378 48" fill="none" xmlns="http://www.w3.org/2000/svg">
<rect width="48" height="48" rx="13" fill="white"/>
<rect x="24.6344" y="8.65979" width="9.57894" height="30.433" rx="4.78947" transform="rotate(35.008 24.6344 8.65979)" fill="#DB4C3F"/>
<rect x="33.0848" y="20.2887" width="9.57894" height="16.267" rx="4.78947" transform="rotate(35.008 33.0848 20.2887)" fill="#DB4C3F"/>
<path d="M82.208 15.552H74.144V10.8H96.104V15.552H88.04V36H82.208V15.552ZM105.674 16.344C108.674 16.344 110.978 17.064 112.586 18.504C114.194 19.92 114.998 22.068 114.998 24.948V36H109.742V33.588C108.686 35.388 106.718 36.288 103.838 36.288C102.35 36.288 101.054 36.036 99.9495 35.532C98.8695 35.028 98.0415 34.332 97.4655 33.444C96.8895 32.556 96.6015 31.548 96.6015 30.42C96.6015 28.62 97.2735 27.204 98.6175 26.172C99.9855 25.14 102.086 24.624 104.918 24.624H109.382C109.382 23.4 109.01 22.464 108.266 21.816C107.522 21.144 106.406 20.808 104.918 20.808C103.886 20.808 102.866 20.976 101.858 21.312C100.874 21.624 100.034 22.056 99.3375 22.608L97.3215 18.684C98.3775 17.94 99.6375 17.364 101.102 16.956C102.59 16.548 104.114 16.344 105.674 16.344ZM105.242 32.508C106.202 32.508 107.054 32.292 107.798 31.86C108.542 31.404 109.07 30.744 109.382 29.88V27.9H105.53C103.226 27.9 102.074 28.656 102.074 30.168C102.074 30.888 102.35 31.464 102.902 31.896C103.478 32.304 104.258 32.508 105.242 32.508ZM140.019 9.288V36H134.655V33.768C133.263 35.448 131.247 36.288 128.607 36.288C126.783 36.288 125.127 35.88 123.639 35.064C122.175 34.248 121.023 33.084 120.183 31.572C119.343 30.06 118.923 28.308 118.923 26.316C118.923 24.324 119.343 22.572 120.183 21.06C121.023 19.548 122.175 18.384 123.639 17.568C125.127 16.752 126.783 16.344 128.607 16.344C131.079 16.344 133.011 17.124 134.403 18.684V9.288H140.019ZM129.579 31.68C130.995 31.68 132.171 31.2 133.107 30.24C134.043 29.256 134.511 27.948 134.511 26.316C134.511 24.684 134.043 23.388 133.107 22.428C132.171 21.444 130.995 20.952 129.579 20.952C128.139 20.952 126.951 21.444 126.015 22.428C125.079 23.388 124.611 24.684 124.611 26.316C124.611 27.948 125.079 29.256 126.015 30.24C126.951 31.2 128.139 31.68 129.579 31.68ZM153.029 16.344C156.029 16.344 158.333 17.064 159.941 18.504C161.549 19.92 162.353 22.068 162.353 24.948V36H157.097V33.588C156.041 35.388 154.073 36.288 151.193 36.288C149.705 36.288 148.409 36.036 147.305 35.532C146.225 35.028 145.397 34.332 144.821 33.444C144.245 32.556 143.957 31.548 143.957 30.42C143.957 28.62 144.629 27.204 145.973 26.172C147.341 25.14 149.441 24.624 152.273 24.624H156.737C156.737 23.4 156.365 22.464 155.621 21.816C154.877 21.144 153.761 20.808 152.273 20.808C151.241 20.808 150.221 20.976 149.213 21.312C148.229 21.624 147.389 22.056 146.693 22.608L144.677 18.684C145.733 17.94 146.993 17.364 148.457 16.956C149.945 16.548 151.469 16.344 153.029 16.344ZM152.597 32.508C153.557 32.508 154.409 32.292 155.153 31.86C155.897 31.404 156.425 30.744 156.737 29.88V27.9H152.885C150.581 27.9 149.429 28.656 149.429 30.168C149.429 30.888 149.705 31.464 150.257 31.896C150.833 32.304 151.613 32.508 152.597 32.508ZM178.884 16.344C180.684 16.344 182.316 16.764 183.78 17.604C185.268 18.42 186.432 19.584 187.272 21.096C188.112 22.584 188.532 24.324 188.532 26.316C188.532 28.308 188.112 30.06 187.272 31.572C186.432 33.06 185.268 34.224 183.78 35.064C182.316 35.88 180.684 36.288 178.884 36.288C176.412 36.288 174.468 35.508 173.052 33.948V42.984H167.436V16.632H172.8V18.864C174.192 17.184 176.22 16.344 178.884 16.344ZM177.912 31.68C179.352 31.68 180.528 31.2 181.44 30.24C182.376 29.256 182.844 27.948 182.844 26.316C182.844 24.684 182.376 23.388 181.44 22.428C180.528 21.444 179.352 20.952 177.912 20.952C176.472 20.952 175.284 21.444 174.348 22.428C173.436 23.388 172.98 24.684 172.98 26.316C172.98 27.948 173.436 29.256 174.348 30.24C175.284 31.2 176.472 31.68 177.912 31.68ZM203.739 16.344C205.539 16.344 207.171 16.764 208.635 17.604C210.123 18.42 211.287 19.584 212.127 21.096C212.967 22.584 213.387 24.324 213.387 26.316C213.387 28.308 212.967 30.06 212.127 31.572C211.287 33.06 210.123 34.224 208.635 35.064C207.171 35.88 205.539 36.288 203.739 36.288C201.267 36.288 199.323 35.508 197.907 33.948V42.984H192.291V16.632H197.655V18.864C199.047 17.184 201.075 16.344 203.739 16.344ZM202.767 31.68C204.207 31.68 205.383 31.2 206.295 30.24C207.231 29.256 207.699 27.948 207.699 26.316C207.699 24.684 207.231 23.388 206.295 22.428C205.383 21.444 204.207 20.952 202.767 20.952C201.327 20.952 200.139 21.444 199.203 22.428C198.291 23.388 197.835 24.684 197.835 26.316C197.835 27.948 198.291 29.256 199.203 30.24C200.139 31.2 201.327 31.68 202.767 31.68ZM250.85 10.8V36H246.062L233.498 20.7V36H227.738V10.8H232.562L245.09 26.1V10.8H250.85ZM264.228 16.344C267.228 16.344 269.532 17.064 271.14 18.504C272.748 19.92 273.552 22.068 273.552 24.948V36H268.296V33.588C267.24 35.388 265.272 36.288 262.392 36.288C260.904 36.288 259.608 36.036 258.504 35.532C257.424 35.028 256.596 34.332 256.02 33.444C255.444 32.556 255.156 31.548 255.156 30.42C255.156 28.62 255.828 27.204 257.172 26.172C258.54 25.14 260.64 24.624 263.472 24.624H267.936C267.936 23.4 267.564 22.464 266.82 21.816C266.076 21.144 264.96 20.808 263.472 20.808C262.44 20.808 261.42 20.976 260.412 21.312C259.428 21.624 258.588 22.056 257.892 22.608L255.876 18.684C256.932 17.94 258.192 17.364 259.656 16.956C261.144 16.548 262.668 16.344 264.228 16.344ZM263.796 32.508C264.756 32.508 265.608 32.292 266.352 31.86C267.096 31.404 267.624 30.744 267.936 29.88V27.9H264.084C261.78 27.9 260.628 28.656 260.628 30.168C260.628 30.888 260.904 31.464 261.456 31.896C262.032 32.304 262.812 32.508 263.796 32.508ZM291.127 35.064C290.575 35.472 289.891 35.784 289.075 36C288.283 36.192 287.443 36.288 286.555 36.288C284.251 36.288 282.463 35.7 281.191 34.524C279.943 33.348 279.319 31.62 279.319 29.34V21.384H276.331V17.064H279.319V12.348H284.935V17.064H289.759V21.384H284.935V29.268C284.935 30.084 285.139 30.72 285.547 31.176C285.979 31.608 286.579 31.824 287.347 31.824C288.235 31.824 288.991 31.584 289.615 31.104L291.127 35.064ZM294.28 16.632H299.896V36H294.28V16.632ZM297.088 13.932C296.056 13.932 295.216 13.632 294.568 13.032C293.92 12.432 293.596 11.688 293.596 10.8C293.596 9.912 293.92 9.168 294.568 8.568C295.216 7.968 296.056 7.668 297.088 7.668C298.12 7.668 298.96 7.956 299.608 8.532C300.256 9.108 300.58 9.828 300.58 10.692C300.58 11.628 300.256 12.408 299.608 13.032C298.96 13.632 298.12 13.932 297.088 13.932ZM324.332 16.632L316.16 36H310.364L302.228 16.632H308.024L313.388 29.808L318.932 16.632H324.332ZM345.068 26.388C345.068 26.46 345.032 26.964 344.96 27.9H330.308C330.572 29.1 331.196 30.048 332.18 30.744C333.164 31.44 334.388 31.788 335.852 31.788C336.86 31.788 337.748 31.644 338.516 31.356C339.308 31.044 340.04 30.564 340.712 29.916L343.7 33.156C341.876 35.244 339.212 36.288 335.708 36.288C333.524 36.288 331.592 35.868 329.912 35.028C328.232 34.164 326.936 32.976 326.024 31.464C325.112 29.952 324.656 28.236 324.656 26.316C324.656 24.42 325.1 22.716 325.988 21.204C326.9 19.668 328.136 18.48 329.696 17.64C331.28 16.776 333.044 16.344 334.988 16.344C336.884 16.344 338.6 16.752 340.136 17.568C341.672 18.384 342.872 19.56 343.736 21.096C344.624 22.608 345.068 24.372 345.068 26.388ZM335.024 20.592C333.752 20.592 332.684 20.952 331.82 21.672C330.956 22.392 330.428 23.376 330.236 24.624H339.776C339.584 23.4 339.056 22.428 338.192 21.708C337.328 20.964 336.272 20.592 335.024 20.592Z" fill="white"/>
</svg>
