<svg width="168" height="89" viewBox="0 0 168 89" fill="none" xmlns="http://www.w3.org/2000/svg">
<path d="M166.5 25C166.5 11.469 155.531 0.5 142 0.5H26C12.469 0.5 1.5 11.469 1.5 25V318C1.5 331.531 12.469 342.5 26 342.5H142C155.531 342.5 166.5 331.531 166.5 318V25Z" fill="white" stroke="#607D8B"/>
<path d="M1 47.5C0.723858 47.5 0.5 47.7239 0.5 48V59C0.5 59.2761 0.723858 59.5 1 59.5H2.5V47.5H1Z" fill="white" stroke="#607D8B"/>
<path d="M1 72.5C0.723858 72.5 0.5 72.7239 0.5 73V95C0.5 95.2761 0.723858 95.5 1 95.5H2.5V72.5H1Z" fill="white" stroke="#607D8B"/>
<path d="M167 79.5H165.5V119.5H167C167.276 119.5 167.5 119.276 167.5 119V80C167.5 79.7239 167.276 79.5 167 79.5Z" fill="white" stroke="#607D8B"/>
<rect x="73.5" y="9.5" width="21" height="3" rx="1.5" stroke="#607D8B"/>
<circle cx="102" cy="11" r="1.5" stroke="#607D8B"/>
<line x1="9" y1="49.5" x2="159" y2="49.5" stroke="#DAE2E7"/>
<circle cx="141" cy="35" r="6" fill="#DB4C3F"/>
<circle cx="141" cy="35" r="8.5" stroke="#FFA198"/>
<mask id="mask0" mask-type="alpha" maskUnits="userSpaceOnUse" x="9" y="9" width="150" height="326">
<path d="M9 317V27C9 17.0589 17.0589 9 27 9H40C42.2091 9 44 10.7909 44 13V14C44 17.866 47.134 21 51 21H117C120.866 21 124 17.866 124 14V13C124 10.7909 125.791 9 128 9H141C150.941 9 159 17.0589 159 27V317C159 326.941 150.941 335 141 335H27C17.0589 335 9 326.941 9 317Z" fill="#C4C4C4"/>
</mask>
<g mask="url(#mask0)">
<rect x="9" y="9" width="150" height="325" fill="black" fill-opacity="0.6"/>
<rect x="9" y="9" width="104" height="325" fill="white"/>
<line x1="10.9952" y1="50.5" x2="112.995" y2="49.5193" stroke="#E6E6E6"/>
<rect x="17" y="60" width="64" height="8" rx="4" fill="#DB4C3F"/>
<rect x="17" y="72" width="78" height="8" rx="4" fill="#DB4C3F"/>
</g>
<path d="M9.5 26V317C9.5 326.665 17.335 334.5 27 334.5H142C151.665 334.5 159.5 326.665 159.5 317V26C159.5 16.335 151.665 8.5 142 8.5H128.767C126.834 8.5 125.267 10.067 125.267 12V13.0368C125.267 17.1789 121.909 20.5368 117.767 20.5368H51.2333C47.0912 20.5368 43.7333 17.1789 43.7333 13.0368V12C43.7333 10.067 42.1663 8.5 40.2333 8.5H27C17.335 8.5 9.5 16.335 9.5 26Z" stroke="#607D8B"/>
<circle cx="25.6" cy="34.6" r="8.6" fill="#E6E6E6"/>
<rect x="39.9333" y="28.3" width="63.0667" height="13" rx="6.5" fill="#E6E6E6"/>
</svg>
