<svg width="86" height="23" viewBox="0 0 86 23" fill="none" xmlns="http://www.w3.org/2000/svg">
<g clip-path="url(#clip0)">
<path d="M16.6738 12.1141C16.6636 10.2359 17.5102 8.8182 19.2239 7.77414C18.265 6.39742 16.8166 5.63996 14.9041 5.49154C13.0936 5.34824 11.1147 6.55095 10.3905 6.55095C9.62549 6.55095 7.87106 5.54272 6.49404 5.54272C3.64819 5.58878 0.62384 7.8202 0.62384 12.3598C0.62384 13.7007 0.868644 15.086 1.35825 16.5156C2.01106 18.3939 4.3673 23 6.82555 22.9232C8.11077 22.8925 9.01858 22.0071 10.6914 22.0071C12.3132 22.0071 13.1548 22.9232 14.5879 22.9232C17.0665 22.8874 19.1984 18.7009 19.8206 16.8175C16.4953 15.2463 16.6738 12.2114 16.6738 12.1141V12.1141ZM13.7872 3.7105C15.1795 2.05229 15.052 0.5425 15.0112 -9.53674e-07C13.7821 0.0716501 12.3591 0.83934 11.5482 1.78616C10.6557 2.79951 10.1304 4.0534 10.2426 5.46595C11.5737 5.56831 12.7875 4.88251 13.7872 3.7105V3.7105Z" fill="white"/>
</g>
<path d="M74.9352 17.1834C73.9938 17.1834 73.228 16.4203 73.228 15.483C73.228 14.5457 73.9938 13.7833 74.9352 13.7833C75.8767 13.7833 76.6425 14.5456 76.6425 15.483C76.6425 16.4205 75.8767 17.1834 74.9352 17.1834ZM56.0648 17.1834C55.1234 17.1834 54.3577 16.4203 54.3577 15.483C54.3577 14.5457 55.1233 13.7833 56.0648 13.7833C57.0062 13.7833 57.772 14.5456 57.772 15.483C57.772 16.4205 57.0064 17.1834 56.0648 17.1834ZM75.5475 6.94379L78.9596 1.05982C79.0535 0.897436 79.0789 0.704586 79.0302 0.523586C78.9815 0.342585 78.8626 0.188217 78.6998 0.0943524C78.5367 0.000877447 78.343 -0.0243804 78.1612 0.0241185C77.9794 0.0726174 77.8244 0.190913 77.7301 0.353064L74.2754 6.31139C71.6333 5.11102 68.6662 4.44222 65.5 4.44222C62.3338 4.44222 59.3668 5.11102 56.7248 6.31139L53.2699 0.353064C53.1756 0.190913 53.0206 0.0726174 52.8388 0.0241185C52.657 -0.0243804 52.4633 0.000877447 52.3002 0.0943524C52.1373 0.188129 52.0183 0.342499 51.9696 0.523536C51.9209 0.704573 51.9464 0.897465 52.0404 1.05982L55.4525 6.94379C49.5935 10.1166 45.5862 16.0225 45 23H86C85.4133 16.0227 81.4061 10.1166 75.5475 6.94363" fill="white"/>
<defs>
<clipPath id="clip0">
<rect width="20.4444" height="23" fill="white"/>
</clipPath>
</defs>
</svg>
